<?xml version="1.0" standalone="no"?>
<!DOCTYPE svg PUBLIC "-//W3C//DTD SVG 20010904//EN"
 "http://www.w3.org/TR/2001/REC-SVG-20010904/DTD/svg10.dtd">
<svg version="1.0" xmlns="http://www.w3.org/2000/svg"
 width="500.000000pt" height="500.000000pt" viewBox="0 0 500.000000 500.000000"
 preserveAspectRatio="xMidYMid meet">
<metadata>
Created by potrace 1.11, written by Peter Selinger 2001-2013
</metadata>
<g transform="translate(0.000000,500.000000) scale(0.100000,-0.100000)"
fill="#000000" stroke="none">
<path d="M2383 4985 c-106 -23 -189 -71 -275 -157 -61 -62 -84 -78 -107 -78
-49 0 -155 -38 -217 -78 -94 -61 -162 -151 -194 -258 -11 -37 -16 -42 -49 -47
-187 -26 -349 -196 -369 -387 -4 -45 -11 -60 -39 -86 -22 -21 -33 -40 -33 -60
0 -34 408 -3716 416 -3755 3 -15 16 -37 30 -50 l26 -24 928 0 928 0 26 24 c14
13 27 35 30 50 8 39 416 3721 416 3755 0 20 -11 39 -33 60 -28 26 -35 41 -39
86 -20 191 -182 361 -369 387 -33 5 -38 10 -49 47 -32 107 -100 197 -194 258
-62 40 -168 78 -217 78 -23 0 -46 16 -107 78 -143 144 -319 198 -509 157z
m247 -217 c74 -31 118 -68 161 -131 22 -34 48 -66 57 -73 9 -6 55 -13 102 -16
98 -5 145 -25 201 -85 49 -51 70 -94 76 -162 7 -64 25 -106 52 -121 11 -5 53
-10 93 -10 84 0 136 -20 186 -70 41 -40 60 -76 68 -129 l7 -41 -794 -1 c-588
0 -803 -3 -829 -12 -67 -23 -70 -41 -70 -383 l0 -301 -26 -27 c-37 -36 -91
-36 -128 0 l-26 27 0 301 c0 267 -2 305 -18 336 -24 49 -61 59 -231 59 l-144
1 7 41 c8 53 27 89 68 129 50 50 102 70 186 70 40 0 82 5 93 10 27 15 45 57
52 121 6 68 27 111 76 162 55 59 103 80 196 84 98 5 118 14 151 70 89 153 277
219 434 151z m-1078 -1305 l3 -258 28 -57 c106 -216 403 -227 525 -20 l27 47
3 273 3 272 774 0 774 0 -5 -32 c-7 -47 -344 -3090 -344 -3105 0 -10 -164 -13
-840 -13 -676 0 -840 3 -840 13 0 15 -337 3058 -344 3105 l-5 32 119 0 118 0
4 -257z m1753 -3175 c-3 -40 -9 -76 -11 -80 -3 -5 -362 -8 -798 -8 l-793 0 -7
53 c-3 28 -6 64 -6 80 l0 27 811 0 812 0 -8 -72z"/>
</g>
</svg>
